# xmcd
#
# Track frame offsets: 
#        150
#        15825
#        36525
#        54675
#        71400
#        86925
#        96600
#        109725
#        124725
#
# Disc length: 1827 seconds
#
# Revision: 0
# Processed by: cddbd v1.5.1PL0 Copyright (c) Steve Scherf et al.
# Submitted via: ExactAudioCopy v0.95a5
#
DISCID=7c072109
DTITLE=white2blue - white2blue
DYEAR=2004
DGENRE=Blues
TTITLE0=wild child
TTITLE1=tears came rollin'
TTITLE2=i give you this
TTITLE3=cowgirl in the sand
TTITLE4=big warm bed
TTITLE5=farmin'
TTITLE6=let me love you
TTITLE7=who am i?
TTITLE8=crossroads
EXTD=
EXTT0=
EXTT1=
EXTT2=
EXTT3=
EXTT4=
EXTT5=
EXTT6=
EXTT7=
EXTT8=
PLAYORDER=
